<svg width="81" height="81" viewBox="0 0 81 81" fill="none" xmlns="http://www.w3.org/2000/svg"><path d="M40.5 40.5C45.675 40.5 50.625 35.55 50.625 30.375C50.625 25.2 45.675 20.25 40.5 20.25C35.325 20.25 30.375 25.2 30.375 30.375C30.375 35.55 35.325 40.5 40.5 40.5ZM40.5 23.625C43.875 23.625 47.25 27 47.25 30.375C47.25 33.75 43.875 37.125 40.5 37.125C37.125 37.125 33.75 33.75 33.75 30.375C33.75 27 37.125 23.625 40.5 23.625ZM20.25 57.375V60.75H60.75V57.375C60.75 50.625 47.25 47.25 40.5 47.25C33.75 47.25 20.25 50.625 20.25 57.375ZM23.625 57.375C24.975 54.675 34.425 50.625 40.5 50.625C46.575 50.625 56.025 54.675 57.375 57.375H23.625Z" fill="#999999"/></svg>